<?xml version="1.0" standalone="no"?>
<!DOCTYPE svg PUBLIC "-//W3C//DTD SVG 20010904//EN"
 "http://www.w3.org/TR/2001/REC-SVG-20010904/DTD/svg10.dtd">
<svg version="1.0" xmlns="http://www.w3.org/2000/svg"
 width="288.000000pt" height="288.000000pt" viewBox="0 0 288.000000 288.000000"
 preserveAspectRatio="xMidYMid meet">

<g transform="translate(0.000000,288.000000) scale(0.100000,-0.100000)"
fill="#000000" stroke="none">
<path d="M1013 2488 c-16 -21 -27 -74 -34 -171 -2 -21 -7 -41 -12 -44 -5 -3
-4 -8 1 -12 8 -5 6 -29 -4 -80 -9 -41 -13 -83 -11 -95 3 -12 2 -43 -3 -71 -4
-27 -4 -57 0 -65 5 -9 2 -30 -6 -50 -8 -18 -13 -39 -10 -46 3 -7 -4 -20 -15
-30 -11 -10 -19 -25 -17 -33 3 -21 -11 -61 -21 -61 -5 0 -9 -35 -10 -77 -1
-43 -4 -91 -6 -107 -2 -16 3 -35 11 -43 11 -12 12 -18 3 -29 -6 -8 -8 -14 -3
-14 5 -1 -2 -7 -16 -15 -14 -8 -19 -14 -12 -15 16 0 15 -19 -2 -52 -9 -17 -11
-30 -5 -34 5 -3 6 -10 3 -16 -4 -7 -2 -8 5 -4 6 4 18 0 27 -8 17 -17 54 -22
54 -7 0 10 34 8 63 -4 9 -4 17 -13 17 -20 0 -18 34 -45 56 -45 11 0 29 -7 41
-15 12 -8 45 -19 75 -23 39 -6 52 -12 49 -23 -2 -8 -5 -30 -7 -49 -2 -19 -9
-58 -15 -86 -6 -28 -9 -69 -7 -90 3 -24 -1 -51 -10 -68 -8 -16 -16 -49 -18
-72 -5 -49 -47 -219 -70 -281 -9 -23 -13 -47 -9 -54 5 -7 4 -10 -3 -5 -7 4
-13 -7 -17 -31 -4 -21 -11 -53 -15 -71 -5 -19 -7 -39 -4 -46 8 -21 52 -40 95
-41 21 0 39 -3 39 -8 0 -4 12 -7 28 -7 15 1 52 -6 82 -14 66 -19 243 -23 319
-7 29 6 72 11 95 11 22 0 52 6 66 13 28 14 111 127 106 143 -3 6 5 19 16 28
16 14 19 26 15 56 -3 25 0 43 9 52 21 20 34 109 27 181 -7 75 11 186 38 237
11 19 19 40 19 46 0 20 85 91 135 113 72 32 165 26 165 -10 0 -23 -32 -41 -68
-39 -44 3 -54 1 -46 -11 3 -6 0 -15 -7 -20 -10 -6 -10 -9 -2 -9 7 0 10 -6 7
-13 -6 -18 37 -37 84 -37 50 0 98 32 117 76 21 50 19 69 -10 118 -35 60 -60
71 -163 69 -90 -1 -124 -12 -192 -58 -67 -46 -85 -63 -100 -91 -8 -16 -36 -57
-63 -91 -27 -35 -46 -67 -42 -73 3 -5 -1 -25 -10 -44 -12 -25 -15 -45 -9 -68
4 -18 7 -36 6 -40 -1 -5 -4 -52 -7 -105 -3 -54 -8 -118 -12 -143 -3 -25 -7
-52 -7 -60 -1 -8 -8 -15 -16 -15 -9 0 -17 15 -22 42 -4 23 -14 53 -23 66 -8
14 -17 37 -20 53 -8 61 -25 136 -34 151 -4 9 -6 23 -4 33 2 9 -3 44 -11 77 -9
34 -16 83 -16 110 0 28 -8 75 -18 105 -19 59 -19 80 3 72 7 -3 31 4 54 15 22
12 47 21 56 21 17 0 58 38 85 78 16 24 50 26 58 4 2 -8 -2 -10 -14 -5 -12 4
-15 3 -10 -5 4 -7 23 -12 42 -12 19 0 34 -5 34 -11 0 -16 91 -2 110 17 11 11
12 16 2 26 -9 9 -12 9 -12 -2 0 -7 -3 -11 -6 -7 -4 3 -13 0 -21 -8 -19 -19
-33 -19 -33 0 0 8 -6 15 -14 15 -22 0 -29 17 -32 77 -3 45 0 54 11 49 11 -4
15 1 15 17 0 18 -2 19 -10 7 -8 -12 -10 -11 -10 7 0 45 22 122 37 127 8 4 13
13 9 21 -3 10 1 15 12 15 22 0 37 -11 45 -30 4 -12 6 -12 6 2 1 12 6 15 17 11
8 -3 13 -12 10 -19 -3 -9 2 -14 14 -14 29 0 25 11 -20 60 -22 24 -40 50 -40
59 0 14 -2 14 -10 1 -9 -13 -10 -13 -11 0 -1 8 -1 19 0 24 1 4 -4 15 -11 23
-9 12 -9 16 2 23 12 7 11 12 -4 29 -11 12 -24 21 -29 21 -23 0 -34 33 -25 79
10 51 12 246 3 260 -3 5 -7 40 -10 78 -12 173 -16 196 -33 209 -9 7 -13 14 -8
14 5 0 3 7 -4 15 -17 20 -64 19 -82 -2 -19 -22 -54 -99 -62 -135 -4 -16 -10
-28 -15 -28 -14 0 -33 -67 -26 -90 4 -13 1 -22 -9 -26 -9 -3 -16 -12 -16 -19
0 -6 -9 -20 -19 -29 -18 -17 -20 -17 -41 4 -16 16 -29 21 -51 16 -15 -3 -31
-1 -34 4 -4 6 -10 8 -14 6 -4 -3 -59 -9 -122 -15 -63 -5 -121 -12 -129 -15
-16 -6 -54 63 -63 114 -7 37 -33 96 -46 104 -6 4 -11 20 -11 37 0 16 -4 29
-10 29 -5 0 -10 8 -10 18 0 34 -29 62 -64 62 -19 0 -38 -6 -43 -12z m374 -354
c-3 -3 -12 -4 -19 -1 -8 3 -5 6 6 6 11 1 17 -2 13 -5z m89 -16 c3 -5 4 -12 1
-14 -6 -6 -47 18 -47 27 0 10 39 -1 46 -13z m-46 -56 c0 -12 68 -14 75 -2 10
16 28 12 21 -5 -4 -12 2 -14 34 -10 47 6 51 -6 17 -48 -21 -27 -25 -28 -143
-32 l-120 -5 -17 37 c-18 41 -12 52 33 54 14 0 34 4 45 9 26 11 55 12 55 2z
m-225 -72 c-3 -5 -10 -10 -16 -10 -5 0 -9 5 -9 10 0 6 7 10 16 10 8 0 12 -4 9
-10z m685 -140 c0 -5 -4 -10 -9 -10 -6 0 -13 5 -16 10 -3 6 1 10 9 10 9 0 16
-4 16 -10z m-592 -174 l47 -44 0 -75 c0 -67 -3 -79 -25 -102 -46 -49 -129 -81
-145 -55 -4 6 8 10 28 10 45 0 91 42 107 97 21 68 -9 130 -77 158 -43 18 -36
18 -61 -2 -73 -63 -103 -105 -82 -118 5 -3 7 -12 4 -19 -6 -17 20 -72 49 -103
27 -30 17 -38 -21 -16 -31 18 -54 58 -70 123 -6 27 -4 43 12 74 12 23 29 46
38 54 9 7 23 18 30 26 8 7 36 18 63 23 28 6 51 11 53 12 2 0 24 -19 50 -43z
m629 4 c-11 -18 -33 -29 -24 -12 2 4 7 15 10 25 4 10 11 16 17 12 6 -4 5 -13
-3 -25z m-284 6 c45 -21 67 -43 105 -104 41 -68 41 -102 2 -135 -16 -14 -30
-30 -30 -36 0 -10 -13 -15 -66 -26 -36 -7 -124 13 -124 28 0 6 -7 18 -15 27
-22 24 -43 120 -36 165 3 22 15 52 26 67 16 22 28 27 63 28 23 0 57 -7 75 -14z"/>
<path d="M1554 1666 c-57 -25 -76 -114 -39 -185 17 -34 80 -81 108 -81 24 0
95 41 103 60 4 8 8 32 11 53 4 33 -2 46 -38 93 -23 30 -45 56 -48 58 -21 13
-71 13 -97 2z"/>
<path d="M1990 1589 c0 -5 5 -7 10 -4 6 3 10 8 10 11 0 2 -4 4 -10 4 -5 0 -10
-5 -10 -11z"/>
<path d="M2090 1550 c0 -5 5 -10 11 -10 5 0 7 5 4 10 -3 6 -8 10 -11 10 -2 0
-4 -4 -4 -10z"/>
<path d="M2086 1507 c3 -10 9 -15 12 -12 3 3 0 11 -7 18 -10 9 -11 8 -5 -6z"/>
<path d="M2045 1330 c-3 -5 -1 -10 4 -10 6 0 11 5 11 10 0 6 -2 10 -4 10 -3 0
-8 -4 -11 -10z"/>
</g>
</svg>
